<svg xmlns="http://www.w3.org/2000/svg" version="1.1" xmlns:xlink="http://www.w3.org/1999/xlink" xmlns:svgjs="http://svgjs.dev/svgjs" width="1200" height="76" preserveAspectRatio="none" viewBox="0 0 1200 76"><g mask="url(&quot;#SvgjsMask1259&quot;)" fill="none"><rect width="1200" height="76" x="0" y="0" fill="rgba(0, 0, 0, 1)"></rect><g mask="url(&quot;#SvgjsMask1260&quot;)"><path d="M285 25L285 5" stroke-width="1.67" stroke="rgba(0, 177, 37, 1)"></path><path d="M282.5 25 a2.5 2.5 0 1 0 5 0 a2.5 2.5 0 1 0 -5 0zM282.5 5 a2.5 2.5 0 1 0 5 0 a2.5 2.5 0 1 0 -5 0z" fill="rgba(0, 177, 37, 1)"></path><path d="M535 65L475 5L345 5" stroke-width="1.67" stroke="rgba(0, 177, 37, 1)"></path><path d="M532.5 65 a2.5 2.5 0 1 0 5 0 a2.5 2.5 0 1 0 -5 0zM342.5 5 a2.5 2.5 0 1 0 5 0 a2.5 2.5 0 1 0 -5 0z" fill="rgba(0, 177, 37, 1)"></path><path d="M5 65L15 75L45 75L115 5L195 5" stroke-width="1.67" stroke="rgba(0, 177, 37, 1)"></path><path d="M2.5 65 a2.5 2.5 0 1 0 5 0 a2.5 2.5 0 1 0 -5 0zM192.5 5 a2.5 2.5 0 1 0 5 0 a2.5 2.5 0 1 0 -5 0z" fill="rgba(0, 177, 37, 1)"></path><path d="M805 5L785 25L745 25L735 35L705 35L675 5L615 5" stroke-width="1.67" stroke="rgba(0, 177, 37, 1)"></path><path d="M802.5 5 a2.5 2.5 0 1 0 5 0 a2.5 2.5 0 1 0 -5 0zM612.5 5 a2.5 2.5 0 1 0 5 0 a2.5 2.5 0 1 0 -5 0z" fill="rgba(0, 177, 37, 1)"></path><path d="M665 55L685 75L705 75L745 35L855 35" stroke-width="1.67" stroke="rgba(0, 177, 37, 1)"></path><path d="M662.5 55 a2.5 2.5 0 1 0 5 0 a2.5 2.5 0 1 0 -5 0zM852.5 35 a2.5 2.5 0 1 0 5 0 a2.5 2.5 0 1 0 -5 0z" fill="rgba(0, 177, 37, 1)"></path><path d="M325 55L295 25L295 5" stroke-width="1.67" stroke="rgba(0, 177, 37, 1)"></path><path d="M322.5 55 a2.5 2.5 0 1 0 5 0 a2.5 2.5 0 1 0 -5 0zM292.5 5 a2.5 2.5 0 1 0 5 0 a2.5 2.5 0 1 0 -5 0z" fill="rgba(0, 177, 37, 1)"></path><path d="M515 15L525 25L525 45L545 65L625 65L675 15" stroke-width="1.67" stroke="rgba(0, 177, 37, 1)"></path><path d="M512.5 15 a2.5 2.5 0 1 0 5 0 a2.5 2.5 0 1 0 -5 0zM672.5 15 a2.5 2.5 0 1 0 5 0 a2.5 2.5 0 1 0 -5 0z" fill="rgba(0, 177, 37, 1)"></path><path d="M515 75L325 75" stroke-width="1.67" stroke="rgba(0, 177, 37, 1)"></path><path d="M512.5 75 a2.5 2.5 0 1 0 5 0 a2.5 2.5 0 1 0 -5 0zM322.5 75 a2.5 2.5 0 1 0 5 0 a2.5 2.5 0 1 0 -5 0z" fill="rgba(0, 177, 37, 1)"></path><path d="M1015 35L1045 5L1195 5" stroke-width="1.67" stroke="rgba(0, 177, 37, 1)"></path><path d="M1012.5 35 a2.5 2.5 0 1 0 5 0 a2.5 2.5 0 1 0 -5 0zM1192.5 5 a2.5 2.5 0 1 0 5 0 a2.5 2.5 0 1 0 -5 0z" fill="rgba(0, 177, 37, 1)"></path><path d="M415 15L365 65L225 65" stroke-width="1.67" stroke="rgba(0, 177, 37, 1)"></path><path d="M412.5 15 a2.5 2.5 0 1 0 5 0 a2.5 2.5 0 1 0 -5 0zM222.5 65 a2.5 2.5 0 1 0 5 0 a2.5 2.5 0 1 0 -5 0z" fill="rgba(0, 177, 37, 1)"></path><path d="M425 15L425 65" stroke-width="1.67" stroke="rgba(0, 177, 37, 1)"></path><path d="M422.5 15 a2.5 2.5 0 1 0 5 0 a2.5 2.5 0 1 0 -5 0zM422.5 65 a2.5 2.5 0 1 0 5 0 a2.5 2.5 0 1 0 -5 0z" fill="rgba(0, 177, 37, 1)"></path><path d="M925 45L925 65L935 75L965 75L985 55L1045 55L1065 75L1095 75" stroke-width="1.67" stroke="rgba(0, 177, 37, 1)"></path><path d="M922.5 45 a2.5 2.5 0 1 0 5 0 a2.5 2.5 0 1 0 -5 0zM1092.5 75 a2.5 2.5 0 1 0 5 0 a2.5 2.5 0 1 0 -5 0z" fill="rgba(0, 177, 37, 1)"></path><path d="M345 15L325 35L325 45L335 55L365 55L395 25L395 15" stroke-width="1.67" stroke="rgba(0, 177, 37, 1)"></path><path d="M342.5 15 a2.5 2.5 0 1 0 5 0 a2.5 2.5 0 1 0 -5 0zM392.5 15 a2.5 2.5 0 1 0 5 0 a2.5 2.5 0 1 0 -5 0z" fill="rgba(0, 177, 37, 1)"></path><path d="M455 45L455 15" stroke-width="1.67" stroke="rgba(0, 177, 37, 1)"></path><path d="M452.5 45 a2.5 2.5 0 1 0 5 0 a2.5 2.5 0 1 0 -5 0zM452.5 15 a2.5 2.5 0 1 0 5 0 a2.5 2.5 0 1 0 -5 0z" fill="rgba(0, 177, 37, 1)"></path><path d="M205 5L255 55L275 55L295 35" stroke-width="1.67" stroke="rgba(0, 177, 37, 1)"></path><path d="M202.5 5 a2.5 2.5 0 1 0 5 0 a2.5 2.5 0 1 0 -5 0zM292.5 35 a2.5 2.5 0 1 0 5 0 a2.5 2.5 0 1 0 -5 0z" fill="rgba(0, 177, 37, 1)"></path><path d="M655 75L675 75" stroke-width="1.67" stroke="rgba(0, 177, 37, 1)"></path><path d="M652.5 75 a2.5 2.5 0 1 0 5 0 a2.5 2.5 0 1 0 -5 0zM672.5 75 a2.5 2.5 0 1 0 5 0 a2.5 2.5 0 1 0 -5 0z" fill="rgba(0, 177, 37, 1)"></path><path d="M135 55L165 55L185 75L205 75L215 65L215 25L205 15L145 15" stroke-width="1.67" stroke="rgba(0, 177, 37, 1)"></path><path d="M132.5 55 a2.5 2.5 0 1 0 5 0 a2.5 2.5 0 1 0 -5 0zM142.5 15 a2.5 2.5 0 1 0 5 0 a2.5 2.5 0 1 0 -5 0z" fill="rgba(0, 177, 37, 1)"></path><path d="M605 15L665 15" stroke-width="1.67" stroke="rgba(0, 177, 37, 1)"></path><path d="M602.5 15 a2.5 2.5 0 1 0 5 0 a2.5 2.5 0 1 0 -5 0zM662.5 15 a2.5 2.5 0 1 0 5 0 a2.5 2.5 0 1 0 -5 0z" fill="rgba(0, 177, 37, 1)"></path><path d="M45 15L35 5L5 5" stroke-width="1.67" stroke="rgba(0, 177, 37, 1)"></path><path d="M42.5 15 a2.5 2.5 0 1 0 5 0 a2.5 2.5 0 1 0 -5 0zM2.5 5 a2.5 2.5 0 1 0 5 0 a2.5 2.5 0 1 0 -5 0z" fill="rgba(0, 177, 37, 1)"></path><path d="M715 5L705 15L705 25" stroke-width="1.67" stroke="rgba(0, 177, 37, 1)"></path><path d="M712.5 5 a2.5 2.5 0 1 0 5 0 a2.5 2.5 0 1 0 -5 0zM702.5 25 a2.5 2.5 0 1 0 5 0 a2.5 2.5 0 1 0 -5 0z" fill="rgba(0, 177, 37, 1)"></path><path d="M835 5L815 25L795 25" stroke-width="1.67" stroke="rgba(0, 177, 37, 1)"></path><path d="M832.5 5 a2.5 2.5 0 1 0 5 0 a2.5 2.5 0 1 0 -5 0zM792.5 25 a2.5 2.5 0 1 0 5 0 a2.5 2.5 0 1 0 -5 0z" fill="rgba(0, 177, 37, 1)"></path><path d="M1175 65L1175 15" stroke-width="1.67" stroke="rgba(0, 177, 37, 1)"></path><path d="M1172.5 65 a2.5 2.5 0 1 0 5 0 a2.5 2.5 0 1 0 -5 0zM1172.5 15 a2.5 2.5 0 1 0 5 0 a2.5 2.5 0 1 0 -5 0z" fill="rgba(0, 177, 37, 1)"></path><path d="M505 45L475 15L465 15" stroke-width="1.67" stroke="rgba(0, 177, 37, 1)"></path><path d="M502.5 45 a2.5 2.5 0 1 0 5 0 a2.5 2.5 0 1 0 -5 0zM462.5 15 a2.5 2.5 0 1 0 5 0 a2.5 2.5 0 1 0 -5 0z" fill="rgba(0, 177, 37, 1)"></path><path d="M705 65L725 45" stroke-width="1.67" stroke="rgba(0, 177, 37, 1)"></path><path d="M702.5 65 a2.5 2.5 0 1 0 5 0 a2.5 2.5 0 1 0 -5 0zM722.5 45 a2.5 2.5 0 1 0 5 0 a2.5 2.5 0 1 0 -5 0z" fill="rgba(0, 177, 37, 1)"></path><path d="M605 5L535 5L525 15" stroke-width="1.67" stroke="rgba(0, 177, 37, 1)"></path><path d="M602.5 5 a2.5 2.5 0 1 0 5 0 a2.5 2.5 0 1 0 -5 0zM522.5 15 a2.5 2.5 0 1 0 5 0 a2.5 2.5 0 1 0 -5 0z" fill="rgba(0, 177, 37, 1)"></path><path d="M905 5L965 65" stroke-width="1.67" stroke="rgba(0, 177, 37, 1)"></path><path d="M902.5 5 a2.5 2.5 0 1 0 5 0 a2.5 2.5 0 1 0 -5 0zM962.5 65 a2.5 2.5 0 1 0 5 0 a2.5 2.5 0 1 0 -5 0z" fill="rgba(0, 177, 37, 1)"></path><path d="M245 15L225 15L215 5" stroke-width="1.67" stroke="rgba(0, 177, 37, 1)"></path><path d="M242.5 15 a2.5 2.5 0 1 0 5 0 a2.5 2.5 0 1 0 -5 0zM212.5 5 a2.5 2.5 0 1 0 5 0 a2.5 2.5 0 1 0 -5 0z" fill="rgba(0, 177, 37, 1)"></path><path d="M35 35L35 15" stroke-width="1.67" stroke="rgba(0, 177, 37, 1)"></path><path d="M32.5 35 a2.5 2.5 0 1 0 5 0 a2.5 2.5 0 1 0 -5 0zM32.5 15 a2.5 2.5 0 1 0 5 0 a2.5 2.5 0 1 0 -5 0z" fill="rgba(0, 177, 37, 1)"></path><path d="M155 45L85 45L55 75" stroke-width="1.67" stroke="rgba(0, 177, 37, 1)"></path><path d="M152.5 45 a2.5 2.5 0 1 0 5 0 a2.5 2.5 0 1 0 -5 0zM52.5 75 a2.5 2.5 0 1 0 5 0 a2.5 2.5 0 1 0 -5 0z" fill="rgba(0, 177, 37, 1)"></path><path d="M1105 45L1115 55L1115 75" stroke-width="1.67" stroke="rgba(0, 177, 37, 1)"></path><path d="M1102.5 45 a2.5 2.5 0 1 0 5 0 a2.5 2.5 0 1 0 -5 0zM1112.5 75 a2.5 2.5 0 1 0 5 0 a2.5 2.5 0 1 0 -5 0z" fill="rgba(0, 177, 37, 1)"></path><path d="M865 55L885 75L925 75" stroke-width="1.67" stroke="rgba(0, 177, 37, 1)"></path><path d="M862.5 55 a2.5 2.5 0 1 0 5 0 a2.5 2.5 0 1 0 -5 0zM922.5 75 a2.5 2.5 0 1 0 5 0 a2.5 2.5 0 1 0 -5 0z" fill="rgba(0, 177, 37, 1)"></path><path d="M845 5L905 65L915 65" stroke-width="1.67" stroke="rgba(0, 177, 37, 1)"></path><path d="M842.5 5 a2.5 2.5 0 1 0 5 0 a2.5 2.5 0 1 0 -5 0zM912.5 65 a2.5 2.5 0 1 0 5 0 a2.5 2.5 0 1 0 -5 0z" fill="rgba(0, 177, 37, 1)"></path><path d="M1045 45L1095 45L1105 55L1105 75" stroke-width="1.67" stroke="rgba(0, 177, 37, 1)"></path><path d="M1042.5 45 a2.5 2.5 0 1 0 5 0 a2.5 2.5 0 1 0 -5 0zM1102.5 75 a2.5 2.5 0 1 0 5 0 a2.5 2.5 0 1 0 -5 0z" fill="rgba(0, 177, 37, 1)"></path><path d="M835 55L825 45L745 45L715 75" stroke-width="1.67" stroke="rgba(0, 177, 37, 1)"></path><path d="M832.5 55 a2.5 2.5 0 1 0 5 0 a2.5 2.5 0 1 0 -5 0zM712.5 75 a2.5 2.5 0 1 0 5 0 a2.5 2.5 0 1 0 -5 0z" fill="rgba(0, 177, 37, 1)"></path><path d="M1035 65L1045 65L1055 75" stroke-width="1.67" stroke="rgba(0, 177, 37, 1)"></path><path d="M1032.5 65 a2.5 2.5 0 1 0 5 0 a2.5 2.5 0 1 0 -5 0zM1052.5 75 a2.5 2.5 0 1 0 5 0 a2.5 2.5 0 1 0 -5 0z" fill="rgba(0, 177, 37, 1)"></path><path d="M815 65L735 65L725 75" stroke-width="1.67" stroke="rgba(0, 177, 37, 1)"></path><path d="M812.5 65 a2.5 2.5 0 1 0 5 0 a2.5 2.5 0 1 0 -5 0zM722.5 75 a2.5 2.5 0 1 0 5 0 a2.5 2.5 0 1 0 -5 0z" fill="rgba(0, 177, 37, 1)"></path><path d="M655 65L635 65L625 75L525 75L475 25L465 25" stroke-width="1.67" stroke="rgba(0, 177, 37, 1)"></path><path d="M652.5 65 a2.5 2.5 0 1 0 5 0 a2.5 2.5 0 1 0 -5 0zM462.5 25 a2.5 2.5 0 1 0 5 0 a2.5 2.5 0 1 0 -5 0z" fill="rgba(0, 177, 37, 1)"></path><path d="M845 65L825 65L815 75L735 75" stroke-width="1.67" stroke="rgba(0, 177, 37, 1)"></path><path d="M842.5 65 a2.5 2.5 0 1 0 5 0 a2.5 2.5 0 1 0 -5 0zM732.5 75 a2.5 2.5 0 1 0 5 0 a2.5 2.5 0 1 0 -5 0z" fill="rgba(0, 177, 37, 1)"></path><path d="M1135 45L1165 75L1195 75" stroke-width="1.67" stroke="rgba(0, 177, 37, 1)"></path><path d="M1132.5 45 a2.5 2.5 0 1 0 5 0 a2.5 2.5 0 1 0 -5 0zM1192.5 75 a2.5 2.5 0 1 0 5 0 a2.5 2.5 0 1 0 -5 0z" fill="rgba(0, 177, 37, 1)"></path><path d="M1005 65L1025 65L1035 75L1045 75" stroke-width="1.67" stroke="rgba(0, 177, 37, 1)"></path><path d="M1002.5 65 a2.5 2.5 0 1 0 5 0 a2.5 2.5 0 1 0 -5 0zM1042.5 75 a2.5 2.5 0 1 0 5 0 a2.5 2.5 0 1 0 -5 0z" fill="rgba(0, 177, 37, 1)"></path><path d="M755 5L725 5L715 15L715 25" stroke-width="1.67" stroke="rgba(0, 177, 37, 1)"></path><path d="M752.5 5 a2.5 2.5 0 1 0 5 0 a2.5 2.5 0 1 0 -5 0zM712.5 25 a2.5 2.5 0 1 0 5 0 a2.5 2.5 0 1 0 -5 0z" fill="rgba(0, 177, 37, 1)"></path><path d="M655 45L715 45" stroke-width="1.67" stroke="rgba(0, 177, 37, 1)"></path><path d="M652.5 45 a2.5 2.5 0 1 0 5 0 a2.5 2.5 0 1 0 -5 0zM712.5 45 a2.5 2.5 0 1 0 5 0 a2.5 2.5 0 1 0 -5 0z" fill="rgba(0, 177, 37, 1)"></path><path d="M65 5L65 45L45 65L25 65L5 45L5 25" stroke-width="1.67" stroke="rgba(0, 177, 37, 1)"></path><path d="M62.5 5 a2.5 2.5 0 1 0 5 0 a2.5 2.5 0 1 0 -5 0zM2.5 25 a2.5 2.5 0 1 0 5 0 a2.5 2.5 0 1 0 -5 0z" fill="rgba(0, 177, 37, 1)"></path><path d="M1035 35L1025 35L1015 45L955 45L915 5" stroke-width="1.67" stroke="rgba(0, 177, 37, 1)"></path><path d="M1032.5 35 a2.5 2.5 0 1 0 5 0 a2.5 2.5 0 1 0 -5 0zM912.5 5 a2.5 2.5 0 1 0 5 0 a2.5 2.5 0 1 0 -5 0z" fill="rgba(0, 177, 37, 1)"></path><path d="M265 15L265 45" stroke-width="1.67" stroke="rgba(0, 177, 37, 1)"></path><path d="M262.5 15 a2.5 2.5 0 1 0 5 0 a2.5 2.5 0 1 0 -5 0zM262.5 45 a2.5 2.5 0 1 0 5 0 a2.5 2.5 0 1 0 -5 0z" fill="rgba(0, 177, 37, 1)"></path><path d="M185 45L205 45" stroke-width="1.67" stroke="rgba(0, 177, 37, 1)"></path><path d="M182.5 45 a2.5 2.5 0 1 0 5 0 a2.5 2.5 0 1 0 -5 0zM202.5 45 a2.5 2.5 0 1 0 5 0 a2.5 2.5 0 1 0 -5 0z" fill="rgba(0, 177, 37, 1)"></path><path d="M485 5L525 5" stroke-width="1.67" stroke="rgba(0, 177, 37, 1)"></path><path d="M482.5 5 a2.5 2.5 0 1 0 5 0 a2.5 2.5 0 1 0 -5 0zM522.5 5 a2.5 2.5 0 1 0 5 0 a2.5 2.5 0 1 0 -5 0z" fill="rgba(0, 177, 37, 1)"></path><path d="M395 45L375 65" stroke-width="1.67" stroke="rgba(0, 177, 37, 1)"></path><path d="M392.5 45 a2.5 2.5 0 1 0 5 0 a2.5 2.5 0 1 0 -5 0zM372.5 65 a2.5 2.5 0 1 0 5 0 a2.5 2.5 0 1 0 -5 0z" fill="rgba(0, 177, 37, 1)"></path><path d="M885 25L875 25L855 5" stroke-width="1.67" stroke="rgba(0, 177, 37, 1)"></path><path d="M882.5 25 a2.5 2.5 0 1 0 5 0 a2.5 2.5 0 1 0 -5 0zM852.5 5 a2.5 2.5 0 1 0 5 0 a2.5 2.5 0 1 0 -5 0z" fill="rgba(0, 177, 37, 1)"></path><path d="M385 15L385 25L365 45L335 45" stroke-width="1.67" stroke="rgba(0, 177, 37, 1)"></path><path d="M382.5 15 a2.5 2.5 0 1 0 5 0 a2.5 2.5 0 1 0 -5 0zM332.5 45 a2.5 2.5 0 1 0 5 0 a2.5 2.5 0 1 0 -5 0z" fill="rgba(0, 177, 37, 1)"></path><path d="M195 25L105 25L95 35" stroke-width="1.67" stroke="rgba(0, 177, 37, 1)"></path><path d="M192.5 25 a2.5 2.5 0 1 0 5 0 a2.5 2.5 0 1 0 -5 0zM92.5 35 a2.5 2.5 0 1 0 5 0 a2.5 2.5 0 1 0 -5 0z" fill="rgba(0, 177, 37, 1)"></path><path d="M1095 35L1145 35L1165 55L1165 65" stroke-width="1.67" stroke="rgba(0, 177, 37, 1)"></path><path d="M1092.5 35 a2.5 2.5 0 1 0 5 0 a2.5 2.5 0 1 0 -5 0zM1162.5 65 a2.5 2.5 0 1 0 5 0 a2.5 2.5 0 1 0 -5 0z" fill="rgba(0, 177, 37, 1)"></path><path d="M275 5L275 45" stroke-width="1.67" stroke="rgba(0, 177, 37, 1)"></path><path d="M272.5 5 a2.5 2.5 0 1 0 5 0 a2.5 2.5 0 1 0 -5 0zM272.5 45 a2.5 2.5 0 1 0 5 0 a2.5 2.5 0 1 0 -5 0z" fill="rgba(0, 177, 37, 1)"></path><path d="M975 35L975 5" stroke-width="1.67" stroke="rgba(0, 177, 37, 1)"></path><path d="M972.5 35 a2.5 2.5 0 1 0 5 0 a2.5 2.5 0 1 0 -5 0zM972.5 5 a2.5 2.5 0 1 0 5 0 a2.5 2.5 0 1 0 -5 0z" fill="rgba(0, 177, 37, 1)"></path><path d="M965 5L965 15L955 25L955 35" stroke-width="1.67" stroke="rgba(0, 177, 37, 1)"></path><path d="M962.5 5 a2.5 2.5 0 1 0 5 0 a2.5 2.5 0 1 0 -5 0zM952.5 35 a2.5 2.5 0 1 0 5 0 a2.5 2.5 0 1 0 -5 0z" fill="rgba(0, 177, 37, 1)"></path><path d="M1155 25L1155 35L1165 45" stroke-width="1.67" stroke="rgba(0, 177, 37, 1)"></path><path d="M1152.5 25 a2.5 2.5 0 1 0 5 0 a2.5 2.5 0 1 0 -5 0zM1162.5 45 a2.5 2.5 0 1 0 5 0 a2.5 2.5 0 1 0 -5 0z" fill="rgba(0, 177, 37, 1)"></path><path d="M135 65L125 55L115 55L95 75L85 75L75 65" stroke-width="1.67" stroke="rgba(0, 177, 37, 1)"></path><path d="M132.5 65 a2.5 2.5 0 1 0 5 0 a2.5 2.5 0 1 0 -5 0zM72.5 65 a2.5 2.5 0 1 0 5 0 a2.5 2.5 0 1 0 -5 0z" fill="rgba(0, 177, 37, 1)"></path><path d="M185 65L155 35L105 35" stroke-width="1.67" stroke="rgba(0, 177, 37, 1)"></path><path d="M182.5 65 a2.5 2.5 0 1 0 5 0 a2.5 2.5 0 1 0 -5 0zM102.5 35 a2.5 2.5 0 1 0 5 0 a2.5 2.5 0 1 0 -5 0z" fill="rgba(0, 177, 37, 1)"></path><path d="M545 45L545 15" stroke-width="1.67" stroke="rgba(0, 177, 37, 1)"></path><path d="M542.5 45 a2.5 2.5 0 1 0 5 0 a2.5 2.5 0 1 0 -5 0zM542.5 15 a2.5 2.5 0 1 0 5 0 a2.5 2.5 0 1 0 -5 0z" fill="rgba(0, 177, 37, 1)"></path><path d="M405 65L415 55L415 25" stroke-width="1.67" stroke="rgba(0, 177, 37, 1)"></path><path d="M402.5 65 a2.5 2.5 0 1 0 5 0 a2.5 2.5 0 1 0 -5 0zM412.5 25 a2.5 2.5 0 1 0 5 0 a2.5 2.5 0 1 0 -5 0z" fill="rgba(0, 177, 37, 1)"></path><path d="M1135 55L1135 75" stroke-width="1.67" stroke="rgba(0, 177, 37, 1)"></path><path d="M1132.5 55 a2.5 2.5 0 1 0 5 0 a2.5 2.5 0 1 0 -5 0zM1132.5 75 a2.5 2.5 0 1 0 5 0 a2.5 2.5 0 1 0 -5 0z" fill="rgba(0, 177, 37, 1)"></path><path d="M605 35L585 55L575 55" stroke-width="1.67" stroke="rgba(0, 177, 37, 1)"></path><path d="M602.5 35 a2.5 2.5 0 1 0 5 0 a2.5 2.5 0 1 0 -5 0zM572.5 55 a2.5 2.5 0 1 0 5 0 a2.5 2.5 0 1 0 -5 0z" fill="rgba(0, 177, 37, 1)"></path><path d="M675 25L685 35L695 35" stroke-width="1.67" stroke="rgba(0, 177, 37, 1)"></path><path d="M672.5 25 a2.5 2.5 0 1 0 5 0 a2.5 2.5 0 1 0 -5 0zM692.5 35 a2.5 2.5 0 1 0 5 0 a2.5 2.5 0 1 0 -5 0z" fill="rgba(0, 177, 37, 1)"></path><path d="M355 25L375 25" stroke-width="1.67" stroke="rgba(0, 177, 37, 1)"></path><path d="M352.5 25 a2.5 2.5 0 1 0 5 0 a2.5 2.5 0 1 0 -5 0zM372.5 25 a2.5 2.5 0 1 0 5 0 a2.5 2.5 0 1 0 -5 0z" fill="rgba(0, 177, 37, 1)"></path><path d="M245 55L225 35" stroke-width="1.67" stroke="rgba(0, 177, 37, 1)"></path><path d="M242.5 55 a2.5 2.5 0 1 0 5 0 a2.5 2.5 0 1 0 -5 0zM222.5 35 a2.5 2.5 0 1 0 5 0 a2.5 2.5 0 1 0 -5 0z" fill="rgba(0, 177, 37, 1)"></path><path d="M1055 15L1045 15L1035 25" stroke-width="1.67" stroke="rgba(0, 177, 37, 1)"></path><path d="M1052.5 15 a2.5 2.5 0 1 0 5 0 a2.5 2.5 0 1 0 -5 0zM1032.5 25 a2.5 2.5 0 1 0 5 0 a2.5 2.5 0 1 0 -5 0z" fill="rgba(0, 177, 37, 1)"></path><path d="M305 75L225 75" stroke-width="1.67" stroke="rgba(0, 177, 37, 1)"></path><path d="M302.5 75 a2.5 2.5 0 1 0 5 0 a2.5 2.5 0 1 0 -5 0zM222.5 75 a2.5 2.5 0 1 0 5 0 a2.5 2.5 0 1 0 -5 0z" fill="rgba(0, 177, 37, 1)"></path><path d="M185 35L165 35" stroke-width="1.67" stroke="rgba(0, 177, 37, 1)"></path><path d="M182.5 35 a2.5 2.5 0 1 0 5 0 a2.5 2.5 0 1 0 -5 0zM162.5 35 a2.5 2.5 0 1 0 5 0 a2.5 2.5 0 1 0 -5 0z" fill="rgba(0, 177, 37, 1)"></path><path d="M335 5L335 15L315 35" stroke-width="1.67" stroke="rgba(0, 177, 37, 1)"></path><path d="M332.5 5 a2.5 2.5 0 1 0 5 0 a2.5 2.5 0 1 0 -5 0zM312.5 35 a2.5 2.5 0 1 0 5 0 a2.5 2.5 0 1 0 -5 0z" fill="rgba(0, 177, 37, 1)"></path><path d="M1125 65L1125 45" stroke-width="1.67" stroke="rgba(0, 177, 37, 1)"></path><path d="M1122.5 65 a2.5 2.5 0 1 0 5 0 a2.5 2.5 0 1 0 -5 0zM1122.5 45 a2.5 2.5 0 1 0 5 0 a2.5 2.5 0 1 0 -5 0z" fill="rgba(0, 177, 37, 1)"></path><path d="M845 55L865 35" stroke-width="1.67" stroke="rgba(0, 177, 37, 1)"></path><path d="M842.5 55 a2.5 2.5 0 1 0 5 0 a2.5 2.5 0 1 0 -5 0zM862.5 35 a2.5 2.5 0 1 0 5 0 a2.5 2.5 0 1 0 -5 0z" fill="rgba(0, 177, 37, 1)"></path><path d="M885 65L885 55L875 45L865 45" stroke-width="1.67" stroke="rgba(0, 177, 37, 1)"></path><path d="M882.5 65 a2.5 2.5 0 1 0 5 0 a2.5 2.5 0 1 0 -5 0zM862.5 45 a2.5 2.5 0 1 0 5 0 a2.5 2.5 0 1 0 -5 0z" fill="rgba(0, 177, 37, 1)"></path><path d="M635 25L575 25L565 15L555 15" stroke-width="1.67" stroke="rgba(0, 177, 37, 1)"></path><path d="M632.5 25 a2.5 2.5 0 1 0 5 0 a2.5 2.5 0 1 0 -5 0zM552.5 15 a2.5 2.5 0 1 0 5 0 a2.5 2.5 0 1 0 -5 0z" fill="rgba(0, 177, 37, 1)"></path><path d="M895 45L915 45L925 35" stroke-width="1.67" stroke="rgba(0, 177, 37, 1)"></path><path d="M892.5 45 a2.5 2.5 0 1 0 5 0 a2.5 2.5 0 1 0 -5 0zM922.5 35 a2.5 2.5 0 1 0 5 0 a2.5 2.5 0 1 0 -5 0z" fill="rgba(0, 177, 37, 1)"></path><path d="M305 5L305 25" stroke-width="1.67" stroke="rgba(0, 177, 37, 1)"></path><path d="M302.5 5 a2.5 2.5 0 1 0 5 0 a2.5 2.5 0 1 0 -5 0zM302.5 25 a2.5 2.5 0 1 0 5 0 a2.5 2.5 0 1 0 -5 0z" fill="rgba(0, 177, 37, 1)"></path><path d="M515 25L505 15L495 15" stroke-width="1.67" stroke="rgba(0, 177, 37, 1)"></path><path d="M512.5 25 a2.5 2.5 0 1 0 5 0 a2.5 2.5 0 1 0 -5 0zM492.5 15 a2.5 2.5 0 1 0 5 0 a2.5 2.5 0 1 0 -5 0z" fill="rgba(0, 177, 37, 1)"></path><path d="M1085 25L1095 15L1165 15" stroke-width="1.67" stroke="rgba(0, 177, 37, 1)"></path><path d="M1082.5 25 a2.5 2.5 0 1 0 5 0 a2.5 2.5 0 1 0 -5 0zM1162.5 15 a2.5 2.5 0 1 0 5 0 a2.5 2.5 0 1 0 -5 0z" fill="rgba(0, 177, 37, 1)"></path><path d="M865 65L855 75L825 75" stroke-width="1.67" stroke="rgba(0, 177, 37, 1)"></path><path d="M862.5 65 a2.5 2.5 0 1 0 5 0 a2.5 2.5 0 1 0 -5 0zM822.5 75 a2.5 2.5 0 1 0 5 0 a2.5 2.5 0 1 0 -5 0z" fill="rgba(0, 177, 37, 1)"></path><path d="M125 65L115 75L105 75" stroke-width="1.67" stroke="rgba(0, 177, 37, 1)"></path><path d="M122.5 65 a2.5 2.5 0 1 0 5 0 a2.5 2.5 0 1 0 -5 0zM102.5 75 a2.5 2.5 0 1 0 5 0 a2.5 2.5 0 1 0 -5 0z" fill="rgba(0, 177, 37, 1)"></path><path d="M125 75L145 75L155 65L165 65" stroke-width="1.67" stroke="rgba(0, 177, 37, 1)"></path><path d="M122.5 75 a2.5 2.5 0 1 0 5 0 a2.5 2.5 0 1 0 -5 0zM162.5 65 a2.5 2.5 0 1 0 5 0 a2.5 2.5 0 1 0 -5 0z" fill="rgba(0, 177, 37, 1)"></path><path d="M15 25L15 45L25 55L45 55L55 45" stroke-width="1.67" stroke="rgba(0, 177, 37, 1)"></path><path d="M12.5 25 a2.5 2.5 0 1 0 5 0 a2.5 2.5 0 1 0 -5 0zM52.5 45 a2.5 2.5 0 1 0 5 0 a2.5 2.5 0 1 0 -5 0z" fill="rgba(0, 177, 37, 1)"></path><path d="M685 55L705 55" stroke-width="1.67" stroke="rgba(0, 177, 37, 1)"></path><path d="M682.5 55 a2.5 2.5 0 1 0 5 0 a2.5 2.5 0 1 0 -5 0zM702.5 55 a2.5 2.5 0 1 0 5 0 a2.5 2.5 0 1 0 -5 0z" fill="rgba(0, 177, 37, 1)"></path><path d="M625 55L615 45L605 45" stroke-width="1.67" stroke="rgba(0, 177, 37, 1)"></path><path d="M622.5 55 a2.5 2.5 0 1 0 5 0 a2.5 2.5 0 1 0 -5 0zM602.5 45 a2.5 2.5 0 1 0 5 0 a2.5 2.5 0 1 0 -5 0z" fill="rgba(0, 177, 37, 1)"></path><path d="M1185 45L1185 65" stroke-width="1.67" stroke="rgba(0, 177, 37, 1)"></path><path d="M1182.5 45 a2.5 2.5 0 1 0 5 0 a2.5 2.5 0 1 0 -5 0zM1182.5 65 a2.5 2.5 0 1 0 5 0 a2.5 2.5 0 1 0 -5 0z" fill="rgba(0, 177, 37, 1)"></path><path d="M445 25L445 55L455 65L495 65" stroke-width="1.67" stroke="rgba(0, 177, 37, 1)"></path><path d="M442.5 25 a2.5 2.5 0 1 0 5 0 a2.5 2.5 0 1 0 -5 0zM492.5 65 a2.5 2.5 0 1 0 5 0 a2.5 2.5 0 1 0 -5 0z" fill="rgba(0, 177, 37, 1)"></path><path d="M795 5L785 15L765 15" stroke-width="1.67" stroke="rgba(0, 177, 37, 1)"></path><path d="M792.5 5 a2.5 2.5 0 1 0 5 0 a2.5 2.5 0 1 0 -5 0zM762.5 15 a2.5 2.5 0 1 0 5 0 a2.5 2.5 0 1 0 -5 0z" fill="rgba(0, 177, 37, 1)"></path><path d="M245 5L225 5" stroke-width="1.67" stroke="rgba(0, 177, 37, 1)"></path><path d="M242.5 5 a2.5 2.5 0 1 0 5 0 a2.5 2.5 0 1 0 -5 0zM222.5 5 a2.5 2.5 0 1 0 5 0 a2.5 2.5 0 1 0 -5 0z" fill="rgba(0, 177, 37, 1)"></path><path d="M795 55L815 55" stroke-width="1.67" stroke="rgba(0, 177, 37, 1)"></path><path d="M792.5 55 a2.5 2.5 0 1 0 5 0 a2.5 2.5 0 1 0 -5 0zM812.5 55 a2.5 2.5 0 1 0 5 0 a2.5 2.5 0 1 0 -5 0z" fill="rgba(0, 177, 37, 1)"></path><path d="M765 55L785 55" stroke-width="1.67" stroke="rgba(0, 177, 37, 1)"></path><path d="M762.5 55 a2.5 2.5 0 1 0 5 0 a2.5 2.5 0 1 0 -5 0zM782.5 55 a2.5 2.5 0 1 0 5 0 a2.5 2.5 0 1 0 -5 0z" fill="rgba(0, 177, 37, 1)"></path><path d="M1005 35L1025 15L1025 5" stroke-width="1.67" stroke="rgba(0, 177, 37, 1)"></path><path d="M1002.5 35 a2.5 2.5 0 1 0 5 0 a2.5 2.5 0 1 0 -5 0zM1022.5 5 a2.5 2.5 0 1 0 5 0 a2.5 2.5 0 1 0 -5 0z" fill="rgba(0, 177, 37, 1)"></path><path d="M585 45L575 35L555 35" stroke-width="1.67" stroke="rgba(0, 177, 37, 1)"></path><path d="M582.5 45 a2.5 2.5 0 1 0 5 0 a2.5 2.5 0 1 0 -5 0zM552.5 35 a2.5 2.5 0 1 0 5 0 a2.5 2.5 0 1 0 -5 0z" fill="rgba(0, 177, 37, 1)"></path><path d="M1065 35L1085 35" stroke-width="1.67" stroke="rgba(0, 177, 37, 1)"></path><path d="M1062.5 35 a2.5 2.5 0 1 0 5 0 a2.5 2.5 0 1 0 -5 0zM1082.5 35 a2.5 2.5 0 1 0 5 0 a2.5 2.5 0 1 0 -5 0z" fill="rgba(0, 177, 37, 1)"></path><path d="M405 55L395 65L385 65" stroke-width="1.67" stroke="rgba(0, 177, 37, 1)"></path><path d="M402.5 55 a2.5 2.5 0 1 0 5 0 a2.5 2.5 0 1 0 -5 0zM382.5 65 a2.5 2.5 0 1 0 5 0 a2.5 2.5 0 1 0 -5 0z" fill="rgba(0, 177, 37, 1)"></path><path d="M995 75L1025 75" stroke-width="1.67" stroke="rgba(0, 177, 37, 1)"></path><path d="M992.5 75 a2.5 2.5 0 1 0 5 0 a2.5 2.5 0 1 0 -5 0zM1022.5 75 a2.5 2.5 0 1 0 5 0 a2.5 2.5 0 1 0 -5 0z" fill="rgba(0, 177, 37, 1)"></path><path d="M435 65L435 35" stroke-width="1.67" stroke="rgba(0, 177, 37, 1)"></path><path d="M432.5 65 a2.5 2.5 0 1 0 5 0 a2.5 2.5 0 1 0 -5 0zM432.5 35 a2.5 2.5 0 1 0 5 0 a2.5 2.5 0 1 0 -5 0z" fill="rgba(0, 177, 37, 1)"></path><path d="M1115 25L1095 25" stroke-width="1.67" stroke="rgba(0, 177, 37, 1)"></path><path d="M1112.5 25 a2.5 2.5 0 1 0 5 0 a2.5 2.5 0 1 0 -5 0zM1092.5 25 a2.5 2.5 0 1 0 5 0 a2.5 2.5 0 1 0 -5 0z" fill="rgba(0, 177, 37, 1)"></path><path d="M985 25L1005 25L1015 15L1015 5" stroke-width="1.67" stroke="rgba(0, 177, 37, 1)"></path><path d="M982.5 25 a2.5 2.5 0 1 0 5 0 a2.5 2.5 0 1 0 -5 0zM1012.5 5 a2.5 2.5 0 1 0 5 0 a2.5 2.5 0 1 0 -5 0z" fill="rgba(0, 177, 37, 1)"></path><path d="M635 45L625 45L615 35" stroke-width="1.67" stroke="rgba(0, 177, 37, 1)"></path><path d="M632.5 45 a2.5 2.5 0 1 0 5 0 a2.5 2.5 0 1 0 -5 0zM612.5 35 a2.5 2.5 0 1 0 5 0 a2.5 2.5 0 1 0 -5 0z" fill="rgba(0, 177, 37, 1)"></path><path d="M85 15L95 15L105 5" stroke-width="1.67" stroke="rgba(0, 177, 37, 1)"></path><path d="M82.5 15 a2.5 2.5 0 1 0 5 0 a2.5 2.5 0 1 0 -5 0zM102.5 5 a2.5 2.5 0 1 0 5 0 a2.5 2.5 0 1 0 -5 0z" fill="rgba(0, 177, 37, 1)"></path><path d="M1145 25L1125 25" stroke-width="1.67" stroke="rgba(0, 177, 37, 1)"></path><path d="M1142.5 25 a2.5 2.5 0 1 0 5 0 a2.5 2.5 0 1 0 -5 0zM1122.5 25 a2.5 2.5 0 1 0 5 0 a2.5 2.5 0 1 0 -5 0z" fill="rgba(0, 177, 37, 1)"></path><path d="M1195 35L1195 65" stroke-width="1.67" stroke="rgba(0, 177, 37, 1)"></path><path d="M1192.5 35 a2.5 2.5 0 1 0 5 0 a2.5 2.5 0 1 0 -5 0zM1192.5 65 a2.5 2.5 0 1 0 5 0 a2.5 2.5 0 1 0 -5 0z" fill="rgba(0, 177, 37, 1)"></path><path d="M45 35L35 45L25 45" stroke-width="1.67" stroke="rgba(0, 177, 37, 1)"></path><path d="M42.5 35 a2.5 2.5 0 1 0 5 0 a2.5 2.5 0 1 0 -5 0zM22.5 45 a2.5 2.5 0 1 0 5 0 a2.5 2.5 0 1 0 -5 0z" fill="rgba(0, 177, 37, 1)"></path><path d="M25 35L25 15" stroke-width="1.67" stroke="rgba(0, 177, 37, 1)"></path><path d="M22.5 35 a2.5 2.5 0 1 0 5 0 a2.5 2.5 0 1 0 -5 0zM22.5 15 a2.5 2.5 0 1 0 5 0 a2.5 2.5 0 1 0 -5 0z" fill="rgba(0, 177, 37, 1)"></path></g></g><defs><mask id="SvgjsMask1259"><rect width="1200" height="76" fill="#ffffff"></rect></mask><mask id="SvgjsMask1260"><rect width="1200" height="76" fill="white"></rect><path d="M283.75 25 a1.25 1.25 0 1 0 2.5 0 a1.25 1.25 0 1 0 -2.5 0zM283.75 5 a1.25 1.25 0 1 0 2.5 0 a1.25 1.25 0 1 0 -2.5 0z" fill="black"></path><path d="M533.75 65 a1.25 1.25 0 1 0 2.5 0 a1.25 1.25 0 1 0 -2.5 0zM343.75 5 a1.25 1.25 0 1 0 2.5 0 a1.25 1.25 0 1 0 -2.5 0z" fill="black"></path><path d="M3.75 65 a1.25 1.25 0 1 0 2.5 0 a1.25 1.25 0 1 0 -2.5 0zM193.75 5 a1.25 1.25 0 1 0 2.5 0 a1.25 1.25 0 1 0 -2.5 0z" fill="black"></path><path d="M803.75 5 a1.25 1.25 0 1 0 2.5 0 a1.25 1.25 0 1 0 -2.5 0zM613.75 5 a1.25 1.25 0 1 0 2.5 0 a1.25 1.25 0 1 0 -2.5 0z" fill="black"></path><path d="M663.75 55 a1.25 1.25 0 1 0 2.5 0 a1.25 1.25 0 1 0 -2.5 0zM853.75 35 a1.25 1.25 0 1 0 2.5 0 a1.25 1.25 0 1 0 -2.5 0z" fill="black"></path><path d="M323.75 55 a1.25 1.25 0 1 0 2.5 0 a1.25 1.25 0 1 0 -2.5 0zM293.75 5 a1.25 1.25 0 1 0 2.5 0 a1.25 1.25 0 1 0 -2.5 0z" fill="black"></path><path d="M513.75 15 a1.25 1.25 0 1 0 2.5 0 a1.25 1.25 0 1 0 -2.5 0zM673.75 15 a1.25 1.25 0 1 0 2.5 0 a1.25 1.25 0 1 0 -2.5 0z" fill="black"></path><path d="M513.75 75 a1.25 1.25 0 1 0 2.5 0 a1.25 1.25 0 1 0 -2.5 0zM323.75 75 a1.25 1.25 0 1 0 2.5 0 a1.25 1.25 0 1 0 -2.5 0z" fill="black"></path><path d="M1013.75 35 a1.25 1.25 0 1 0 2.5 0 a1.25 1.25 0 1 0 -2.5 0zM1193.75 5 a1.25 1.25 0 1 0 2.5 0 a1.25 1.25 0 1 0 -2.5 0z" fill="black"></path><path d="M413.75 15 a1.25 1.25 0 1 0 2.5 0 a1.25 1.25 0 1 0 -2.5 0zM223.75 65 a1.25 1.25 0 1 0 2.5 0 a1.25 1.25 0 1 0 -2.5 0z" fill="black"></path><path d="M423.75 15 a1.25 1.25 0 1 0 2.5 0 a1.25 1.25 0 1 0 -2.5 0zM423.75 65 a1.25 1.25 0 1 0 2.5 0 a1.25 1.25 0 1 0 -2.5 0z" fill="black"></path><path d="M923.75 45 a1.25 1.25 0 1 0 2.5 0 a1.25 1.25 0 1 0 -2.5 0zM1093.75 75 a1.25 1.25 0 1 0 2.5 0 a1.25 1.25 0 1 0 -2.5 0z" fill="black"></path><path d="M343.75 15 a1.25 1.25 0 1 0 2.5 0 a1.25 1.25 0 1 0 -2.5 0zM393.75 15 a1.25 1.25 0 1 0 2.5 0 a1.25 1.25 0 1 0 -2.5 0z" fill="black"></path><path d="M453.75 45 a1.25 1.25 0 1 0 2.5 0 a1.25 1.25 0 1 0 -2.5 0zM453.75 15 a1.25 1.25 0 1 0 2.5 0 a1.25 1.25 0 1 0 -2.5 0z" fill="black"></path><path d="M203.75 5 a1.25 1.25 0 1 0 2.5 0 a1.25 1.25 0 1 0 -2.5 0zM293.75 35 a1.25 1.25 0 1 0 2.5 0 a1.25 1.25 0 1 0 -2.5 0z" fill="black"></path><path d="M653.75 75 a1.25 1.25 0 1 0 2.5 0 a1.25 1.25 0 1 0 -2.5 0zM673.75 75 a1.25 1.25 0 1 0 2.5 0 a1.25 1.25 0 1 0 -2.5 0z" fill="black"></path><path d="M133.75 55 a1.25 1.25 0 1 0 2.5 0 a1.25 1.25 0 1 0 -2.5 0zM143.75 15 a1.25 1.25 0 1 0 2.5 0 a1.25 1.25 0 1 0 -2.5 0z" fill="black"></path><path d="M603.75 15 a1.25 1.25 0 1 0 2.5 0 a1.25 1.25 0 1 0 -2.5 0zM663.75 15 a1.25 1.25 0 1 0 2.5 0 a1.25 1.25 0 1 0 -2.5 0z" fill="black"></path><path d="M43.75 15 a1.25 1.25 0 1 0 2.5 0 a1.25 1.25 0 1 0 -2.5 0zM3.75 5 a1.25 1.25 0 1 0 2.5 0 a1.25 1.25 0 1 0 -2.5 0z" fill="black"></path><path d="M713.75 5 a1.25 1.25 0 1 0 2.5 0 a1.25 1.25 0 1 0 -2.5 0zM703.75 25 a1.25 1.25 0 1 0 2.5 0 a1.25 1.25 0 1 0 -2.5 0z" fill="black"></path><path d="M833.75 5 a1.25 1.25 0 1 0 2.5 0 a1.25 1.25 0 1 0 -2.5 0zM793.75 25 a1.25 1.25 0 1 0 2.5 0 a1.25 1.25 0 1 0 -2.5 0z" fill="black"></path><path d="M1173.75 65 a1.25 1.25 0 1 0 2.5 0 a1.25 1.25 0 1 0 -2.5 0zM1173.75 15 a1.25 1.25 0 1 0 2.5 0 a1.25 1.25 0 1 0 -2.5 0z" fill="black"></path><path d="M503.75 45 a1.25 1.25 0 1 0 2.5 0 a1.25 1.25 0 1 0 -2.5 0zM463.75 15 a1.25 1.25 0 1 0 2.5 0 a1.25 1.25 0 1 0 -2.5 0z" fill="black"></path><path d="M703.75 65 a1.25 1.25 0 1 0 2.5 0 a1.25 1.25 0 1 0 -2.5 0zM723.75 45 a1.25 1.25 0 1 0 2.5 0 a1.25 1.25 0 1 0 -2.5 0z" fill="black"></path><path d="M603.75 5 a1.25 1.25 0 1 0 2.5 0 a1.25 1.25 0 1 0 -2.5 0zM523.75 15 a1.25 1.25 0 1 0 2.5 0 a1.25 1.25 0 1 0 -2.5 0z" fill="black"></path><path d="M903.75 5 a1.25 1.25 0 1 0 2.5 0 a1.25 1.25 0 1 0 -2.5 0zM963.75 65 a1.25 1.25 0 1 0 2.5 0 a1.25 1.25 0 1 0 -2.5 0z" fill="black"></path><path d="M243.75 15 a1.25 1.25 0 1 0 2.5 0 a1.25 1.25 0 1 0 -2.5 0zM213.75 5 a1.25 1.25 0 1 0 2.5 0 a1.25 1.25 0 1 0 -2.5 0z" fill="black"></path><path d="M33.75 35 a1.25 1.25 0 1 0 2.5 0 a1.25 1.25 0 1 0 -2.5 0zM33.75 15 a1.25 1.25 0 1 0 2.5 0 a1.25 1.25 0 1 0 -2.5 0z" fill="black"></path><path d="M153.75 45 a1.25 1.25 0 1 0 2.5 0 a1.25 1.25 0 1 0 -2.5 0zM53.75 75 a1.25 1.25 0 1 0 2.5 0 a1.25 1.25 0 1 0 -2.5 0z" fill="black"></path><path d="M1103.75 45 a1.25 1.25 0 1 0 2.5 0 a1.25 1.25 0 1 0 -2.5 0zM1113.75 75 a1.25 1.25 0 1 0 2.5 0 a1.25 1.25 0 1 0 -2.5 0z" fill="black"></path><path d="M863.75 55 a1.25 1.25 0 1 0 2.5 0 a1.25 1.25 0 1 0 -2.5 0zM923.75 75 a1.25 1.25 0 1 0 2.5 0 a1.25 1.25 0 1 0 -2.5 0z" fill="black"></path><path d="M843.75 5 a1.25 1.25 0 1 0 2.5 0 a1.25 1.25 0 1 0 -2.5 0zM913.75 65 a1.25 1.25 0 1 0 2.5 0 a1.25 1.25 0 1 0 -2.5 0z" fill="black"></path><path d="M1043.75 45 a1.25 1.25 0 1 0 2.5 0 a1.25 1.25 0 1 0 -2.5 0zM1103.75 75 a1.25 1.25 0 1 0 2.5 0 a1.25 1.25 0 1 0 -2.5 0z" fill="black"></path><path d="M833.75 55 a1.25 1.25 0 1 0 2.5 0 a1.25 1.25 0 1 0 -2.5 0zM713.75 75 a1.25 1.25 0 1 0 2.5 0 a1.25 1.25 0 1 0 -2.5 0z" fill="black"></path><path d="M1033.75 65 a1.25 1.25 0 1 0 2.5 0 a1.25 1.25 0 1 0 -2.5 0zM1053.75 75 a1.25 1.25 0 1 0 2.5 0 a1.25 1.25 0 1 0 -2.5 0z" fill="black"></path><path d="M813.75 65 a1.25 1.25 0 1 0 2.5 0 a1.25 1.25 0 1 0 -2.5 0zM723.75 75 a1.25 1.25 0 1 0 2.5 0 a1.25 1.25 0 1 0 -2.5 0z" fill="black"></path><path d="M653.75 65 a1.25 1.25 0 1 0 2.5 0 a1.25 1.25 0 1 0 -2.5 0zM463.75 25 a1.25 1.25 0 1 0 2.5 0 a1.25 1.25 0 1 0 -2.5 0z" fill="black"></path><path d="M843.75 65 a1.25 1.25 0 1 0 2.5 0 a1.25 1.25 0 1 0 -2.5 0zM733.75 75 a1.25 1.25 0 1 0 2.5 0 a1.25 1.25 0 1 0 -2.5 0z" fill="black"></path><path d="M1133.75 45 a1.25 1.25 0 1 0 2.5 0 a1.25 1.25 0 1 0 -2.5 0zM1193.75 75 a1.25 1.25 0 1 0 2.5 0 a1.25 1.25 0 1 0 -2.5 0z" fill="black"></path><path d="M1003.75 65 a1.25 1.25 0 1 0 2.5 0 a1.25 1.25 0 1 0 -2.5 0zM1043.75 75 a1.25 1.25 0 1 0 2.5 0 a1.25 1.25 0 1 0 -2.5 0z" fill="black"></path><path d="M753.75 5 a1.25 1.25 0 1 0 2.5 0 a1.25 1.25 0 1 0 -2.5 0zM713.75 25 a1.25 1.25 0 1 0 2.5 0 a1.25 1.25 0 1 0 -2.5 0z" fill="black"></path><path d="M653.75 45 a1.25 1.25 0 1 0 2.5 0 a1.25 1.25 0 1 0 -2.5 0zM713.75 45 a1.25 1.25 0 1 0 2.5 0 a1.25 1.25 0 1 0 -2.5 0z" fill="black"></path><path d="M63.75 5 a1.25 1.25 0 1 0 2.5 0 a1.25 1.25 0 1 0 -2.5 0zM3.75 25 a1.25 1.25 0 1 0 2.5 0 a1.25 1.25 0 1 0 -2.5 0z" fill="black"></path><path d="M1033.75 35 a1.25 1.25 0 1 0 2.5 0 a1.25 1.25 0 1 0 -2.5 0zM913.75 5 a1.25 1.25 0 1 0 2.5 0 a1.25 1.25 0 1 0 -2.5 0z" fill="black"></path><path d="M263.75 15 a1.25 1.25 0 1 0 2.5 0 a1.25 1.25 0 1 0 -2.5 0zM263.75 45 a1.25 1.25 0 1 0 2.5 0 a1.25 1.25 0 1 0 -2.5 0z" fill="black"></path><path d="M183.75 45 a1.25 1.25 0 1 0 2.5 0 a1.25 1.25 0 1 0 -2.5 0zM203.75 45 a1.25 1.25 0 1 0 2.5 0 a1.25 1.25 0 1 0 -2.5 0z" fill="black"></path><path d="M483.75 5 a1.25 1.25 0 1 0 2.5 0 a1.25 1.25 0 1 0 -2.5 0zM523.75 5 a1.25 1.25 0 1 0 2.5 0 a1.25 1.25 0 1 0 -2.5 0z" fill="black"></path><path d="M393.75 45 a1.25 1.25 0 1 0 2.5 0 a1.25 1.25 0 1 0 -2.5 0zM373.75 65 a1.25 1.25 0 1 0 2.5 0 a1.25 1.25 0 1 0 -2.5 0z" fill="black"></path><path d="M883.75 25 a1.25 1.25 0 1 0 2.5 0 a1.25 1.25 0 1 0 -2.5 0zM853.75 5 a1.25 1.25 0 1 0 2.5 0 a1.25 1.25 0 1 0 -2.5 0z" fill="black"></path><path d="M383.75 15 a1.25 1.25 0 1 0 2.5 0 a1.25 1.25 0 1 0 -2.5 0zM333.75 45 a1.25 1.25 0 1 0 2.5 0 a1.25 1.25 0 1 0 -2.5 0z" fill="black"></path><path d="M193.75 25 a1.25 1.25 0 1 0 2.5 0 a1.25 1.25 0 1 0 -2.5 0zM93.75 35 a1.25 1.25 0 1 0 2.5 0 a1.25 1.25 0 1 0 -2.5 0z" fill="black"></path><path d="M1093.75 35 a1.25 1.25 0 1 0 2.5 0 a1.25 1.25 0 1 0 -2.5 0zM1163.75 65 a1.25 1.25 0 1 0 2.5 0 a1.25 1.25 0 1 0 -2.5 0z" fill="black"></path><path d="M273.75 5 a1.25 1.25 0 1 0 2.5 0 a1.25 1.25 0 1 0 -2.5 0zM273.75 45 a1.25 1.25 0 1 0 2.5 0 a1.25 1.25 0 1 0 -2.5 0z" fill="black"></path><path d="M973.75 35 a1.25 1.25 0 1 0 2.5 0 a1.25 1.25 0 1 0 -2.5 0zM973.75 5 a1.25 1.25 0 1 0 2.5 0 a1.25 1.25 0 1 0 -2.5 0z" fill="black"></path><path d="M963.75 5 a1.25 1.25 0 1 0 2.5 0 a1.25 1.25 0 1 0 -2.5 0zM953.75 35 a1.25 1.25 0 1 0 2.5 0 a1.25 1.25 0 1 0 -2.5 0z" fill="black"></path><path d="M1153.75 25 a1.25 1.25 0 1 0 2.5 0 a1.25 1.25 0 1 0 -2.5 0zM1163.75 45 a1.25 1.25 0 1 0 2.5 0 a1.25 1.25 0 1 0 -2.5 0z" fill="black"></path><path d="M133.75 65 a1.25 1.25 0 1 0 2.5 0 a1.25 1.25 0 1 0 -2.5 0zM73.75 65 a1.25 1.25 0 1 0 2.5 0 a1.25 1.25 0 1 0 -2.5 0z" fill="black"></path><path d="M183.75 65 a1.25 1.25 0 1 0 2.5 0 a1.25 1.25 0 1 0 -2.5 0zM103.75 35 a1.25 1.25 0 1 0 2.5 0 a1.25 1.25 0 1 0 -2.5 0z" fill="black"></path><path d="M543.75 45 a1.25 1.25 0 1 0 2.5 0 a1.25 1.25 0 1 0 -2.5 0zM543.75 15 a1.25 1.25 0 1 0 2.5 0 a1.25 1.25 0 1 0 -2.5 0z" fill="black"></path><path d="M403.75 65 a1.25 1.25 0 1 0 2.5 0 a1.25 1.25 0 1 0 -2.5 0zM413.75 25 a1.25 1.25 0 1 0 2.5 0 a1.25 1.25 0 1 0 -2.5 0z" fill="black"></path><path d="M1133.75 55 a1.25 1.25 0 1 0 2.5 0 a1.25 1.25 0 1 0 -2.5 0zM1133.75 75 a1.25 1.25 0 1 0 2.5 0 a1.25 1.25 0 1 0 -2.5 0z" fill="black"></path><path d="M603.75 35 a1.25 1.25 0 1 0 2.5 0 a1.25 1.25 0 1 0 -2.5 0zM573.75 55 a1.25 1.25 0 1 0 2.5 0 a1.25 1.25 0 1 0 -2.5 0z" fill="black"></path><path d="M673.75 25 a1.25 1.25 0 1 0 2.5 0 a1.25 1.25 0 1 0 -2.5 0zM693.75 35 a1.25 1.25 0 1 0 2.5 0 a1.25 1.25 0 1 0 -2.5 0z" fill="black"></path><path d="M353.75 25 a1.25 1.25 0 1 0 2.5 0 a1.25 1.25 0 1 0 -2.5 0zM373.75 25 a1.25 1.25 0 1 0 2.5 0 a1.25 1.25 0 1 0 -2.5 0z" fill="black"></path><path d="M243.75 55 a1.25 1.25 0 1 0 2.5 0 a1.25 1.25 0 1 0 -2.5 0zM223.75 35 a1.25 1.25 0 1 0 2.5 0 a1.25 1.25 0 1 0 -2.5 0z" fill="black"></path><path d="M1053.75 15 a1.25 1.25 0 1 0 2.5 0 a1.25 1.25 0 1 0 -2.5 0zM1033.75 25 a1.25 1.25 0 1 0 2.5 0 a1.25 1.25 0 1 0 -2.5 0z" fill="black"></path><path d="M303.75 75 a1.25 1.25 0 1 0 2.5 0 a1.25 1.25 0 1 0 -2.5 0zM223.75 75 a1.25 1.25 0 1 0 2.5 0 a1.25 1.25 0 1 0 -2.5 0z" fill="black"></path><path d="M183.75 35 a1.25 1.25 0 1 0 2.5 0 a1.25 1.25 0 1 0 -2.5 0zM163.75 35 a1.25 1.25 0 1 0 2.5 0 a1.25 1.25 0 1 0 -2.5 0z" fill="black"></path><path d="M333.75 5 a1.25 1.25 0 1 0 2.5 0 a1.25 1.25 0 1 0 -2.5 0zM313.75 35 a1.25 1.25 0 1 0 2.5 0 a1.25 1.25 0 1 0 -2.5 0z" fill="black"></path><path d="M1123.75 65 a1.25 1.25 0 1 0 2.5 0 a1.25 1.25 0 1 0 -2.5 0zM1123.75 45 a1.25 1.25 0 1 0 2.5 0 a1.25 1.25 0 1 0 -2.5 0z" fill="black"></path><path d="M843.75 55 a1.25 1.25 0 1 0 2.5 0 a1.25 1.25 0 1 0 -2.5 0zM863.75 35 a1.25 1.25 0 1 0 2.5 0 a1.25 1.25 0 1 0 -2.5 0z" fill="black"></path><path d="M883.75 65 a1.25 1.25 0 1 0 2.5 0 a1.25 1.25 0 1 0 -2.5 0zM863.75 45 a1.25 1.25 0 1 0 2.5 0 a1.25 1.25 0 1 0 -2.5 0z" fill="black"></path><path d="M633.75 25 a1.25 1.25 0 1 0 2.5 0 a1.25 1.25 0 1 0 -2.5 0zM553.75 15 a1.25 1.25 0 1 0 2.5 0 a1.25 1.25 0 1 0 -2.5 0z" fill="black"></path><path d="M893.75 45 a1.25 1.25 0 1 0 2.5 0 a1.25 1.25 0 1 0 -2.5 0zM923.75 35 a1.25 1.25 0 1 0 2.5 0 a1.25 1.25 0 1 0 -2.5 0z" fill="black"></path><path d="M303.75 5 a1.25 1.25 0 1 0 2.5 0 a1.25 1.25 0 1 0 -2.5 0zM303.75 25 a1.25 1.25 0 1 0 2.5 0 a1.25 1.25 0 1 0 -2.5 0z" fill="black"></path><path d="M513.75 25 a1.25 1.25 0 1 0 2.5 0 a1.25 1.25 0 1 0 -2.5 0zM493.75 15 a1.25 1.25 0 1 0 2.5 0 a1.25 1.25 0 1 0 -2.5 0z" fill="black"></path><path d="M1083.75 25 a1.25 1.25 0 1 0 2.5 0 a1.25 1.25 0 1 0 -2.5 0zM1163.75 15 a1.25 1.25 0 1 0 2.5 0 a1.25 1.25 0 1 0 -2.5 0z" fill="black"></path><path d="M863.75 65 a1.25 1.25 0 1 0 2.5 0 a1.25 1.25 0 1 0 -2.5 0zM823.75 75 a1.25 1.25 0 1 0 2.5 0 a1.25 1.25 0 1 0 -2.5 0z" fill="black"></path><path d="M123.75 65 a1.25 1.25 0 1 0 2.5 0 a1.25 1.25 0 1 0 -2.5 0zM103.75 75 a1.25 1.25 0 1 0 2.5 0 a1.25 1.25 0 1 0 -2.5 0z" fill="black"></path><path d="M123.75 75 a1.25 1.25 0 1 0 2.5 0 a1.25 1.25 0 1 0 -2.5 0zM163.75 65 a1.25 1.25 0 1 0 2.5 0 a1.25 1.25 0 1 0 -2.5 0z" fill="black"></path><path d="M13.75 25 a1.25 1.25 0 1 0 2.5 0 a1.25 1.25 0 1 0 -2.5 0zM53.75 45 a1.25 1.25 0 1 0 2.5 0 a1.25 1.25 0 1 0 -2.5 0z" fill="black"></path><path d="M683.75 55 a1.25 1.25 0 1 0 2.5 0 a1.25 1.25 0 1 0 -2.5 0zM703.75 55 a1.25 1.25 0 1 0 2.5 0 a1.25 1.25 0 1 0 -2.5 0z" fill="black"></path><path d="M623.75 55 a1.25 1.25 0 1 0 2.5 0 a1.25 1.25 0 1 0 -2.5 0zM603.75 45 a1.25 1.25 0 1 0 2.5 0 a1.25 1.25 0 1 0 -2.5 0z" fill="black"></path><path d="M1183.75 45 a1.25 1.25 0 1 0 2.5 0 a1.25 1.25 0 1 0 -2.5 0zM1183.75 65 a1.25 1.25 0 1 0 2.5 0 a1.25 1.25 0 1 0 -2.5 0z" fill="black"></path><path d="M443.75 25 a1.25 1.25 0 1 0 2.5 0 a1.25 1.25 0 1 0 -2.5 0zM493.75 65 a1.25 1.25 0 1 0 2.5 0 a1.25 1.25 0 1 0 -2.5 0z" fill="black"></path><path d="M793.75 5 a1.25 1.25 0 1 0 2.5 0 a1.25 1.25 0 1 0 -2.5 0zM763.75 15 a1.25 1.25 0 1 0 2.5 0 a1.25 1.25 0 1 0 -2.5 0z" fill="black"></path><path d="M243.75 5 a1.25 1.25 0 1 0 2.5 0 a1.25 1.25 0 1 0 -2.5 0zM223.75 5 a1.25 1.25 0 1 0 2.5 0 a1.25 1.25 0 1 0 -2.5 0z" fill="black"></path><path d="M793.75 55 a1.25 1.25 0 1 0 2.5 0 a1.25 1.25 0 1 0 -2.5 0zM813.75 55 a1.25 1.25 0 1 0 2.5 0 a1.25 1.25 0 1 0 -2.5 0z" fill="black"></path><path d="M763.75 55 a1.25 1.25 0 1 0 2.5 0 a1.25 1.25 0 1 0 -2.5 0zM783.75 55 a1.25 1.25 0 1 0 2.5 0 a1.25 1.25 0 1 0 -2.5 0z" fill="black"></path><path d="M1003.75 35 a1.25 1.25 0 1 0 2.5 0 a1.25 1.25 0 1 0 -2.5 0zM1023.75 5 a1.25 1.25 0 1 0 2.5 0 a1.25 1.25 0 1 0 -2.5 0z" fill="black"></path><path d="M583.75 45 a1.25 1.25 0 1 0 2.5 0 a1.25 1.25 0 1 0 -2.5 0zM553.75 35 a1.25 1.25 0 1 0 2.5 0 a1.25 1.25 0 1 0 -2.5 0z" fill="black"></path><path d="M1063.75 35 a1.25 1.25 0 1 0 2.5 0 a1.25 1.25 0 1 0 -2.5 0zM1083.75 35 a1.25 1.25 0 1 0 2.5 0 a1.25 1.25 0 1 0 -2.5 0z" fill="black"></path><path d="M403.75 55 a1.25 1.25 0 1 0 2.5 0 a1.25 1.25 0 1 0 -2.5 0zM383.75 65 a1.25 1.25 0 1 0 2.5 0 a1.25 1.25 0 1 0 -2.5 0z" fill="black"></path><path d="M993.75 75 a1.25 1.25 0 1 0 2.5 0 a1.25 1.25 0 1 0 -2.5 0zM1023.75 75 a1.25 1.25 0 1 0 2.5 0 a1.25 1.25 0 1 0 -2.5 0z" fill="black"></path><path d="M433.75 65 a1.25 1.25 0 1 0 2.5 0 a1.25 1.25 0 1 0 -2.5 0zM433.75 35 a1.25 1.25 0 1 0 2.5 0 a1.25 1.25 0 1 0 -2.5 0z" fill="black"></path><path d="M1113.75 25 a1.25 1.25 0 1 0 2.5 0 a1.25 1.25 0 1 0 -2.5 0zM1093.75 25 a1.25 1.25 0 1 0 2.5 0 a1.25 1.25 0 1 0 -2.5 0z" fill="black"></path><path d="M983.75 25 a1.25 1.25 0 1 0 2.5 0 a1.25 1.25 0 1 0 -2.5 0zM1013.75 5 a1.25 1.25 0 1 0 2.5 0 a1.25 1.25 0 1 0 -2.5 0z" fill="black"></path><path d="M633.75 45 a1.25 1.25 0 1 0 2.5 0 a1.25 1.25 0 1 0 -2.5 0zM613.75 35 a1.25 1.25 0 1 0 2.5 0 a1.25 1.25 0 1 0 -2.5 0z" fill="black"></path><path d="M83.75 15 a1.25 1.25 0 1 0 2.5 0 a1.25 1.25 0 1 0 -2.5 0zM103.75 5 a1.25 1.25 0 1 0 2.5 0 a1.25 1.25 0 1 0 -2.5 0z" fill="black"></path><path d="M1143.75 25 a1.25 1.25 0 1 0 2.5 0 a1.25 1.25 0 1 0 -2.5 0zM1123.75 25 a1.25 1.25 0 1 0 2.5 0 a1.25 1.25 0 1 0 -2.5 0z" fill="black"></path><path d="M1193.75 35 a1.25 1.25 0 1 0 2.5 0 a1.25 1.25 0 1 0 -2.5 0zM1193.75 65 a1.25 1.25 0 1 0 2.5 0 a1.25 1.25 0 1 0 -2.5 0z" fill="black"></path><path d="M43.75 35 a1.25 1.25 0 1 0 2.5 0 a1.25 1.25 0 1 0 -2.5 0zM23.75 45 a1.25 1.25 0 1 0 2.5 0 a1.25 1.25 0 1 0 -2.5 0z" fill="black"></path><path d="M23.75 35 a1.25 1.25 0 1 0 2.5 0 a1.25 1.25 0 1 0 -2.5 0zM23.75 15 a1.25 1.25 0 1 0 2.5 0 a1.25 1.25 0 1 0 -2.5 0z" fill="black"></path></mask></defs></svg>