<svg xmlns="http://www.w3.org/2000/svg" version="1.1" xmlns:xlink="http://www.w3.org/1999/xlink" xmlns:svgjs="http://svgjs.dev/svgjs" width="1440" height="76" preserveAspectRatio="none" viewBox="0 0 1440 76"><g mask="url(&quot;#SvgjsMask1604&quot;)" fill="none"><rect width="1440" height="76" x="0" y="0" fill="rgba(0, 0, 0, 1)"></rect><path d="M692 28L653 -11" stroke-width="10" stroke="url(&quot;#SvgjsLinearGradient1605&quot;)" stroke-linecap="round" class="TopLeft"></path><path d="M128 54L156 82" stroke-width="8" stroke="url(&quot;#SvgjsLinearGradient1606&quot;)" stroke-linecap="round" class="BottomRight"></path><path d="M1206 75L1258 127" stroke-width="6" stroke="url(&quot;#SvgjsLinearGradient1607&quot;)" stroke-linecap="round" class="TopLeft"></path><path d="M665 72L611 18" stroke-width="6" stroke="url(&quot;#SvgjsLinearGradient1606&quot;)" stroke-linecap="round" class="BottomRight"></path><path d="M35 5L-6 -36" stroke-width="10" stroke="url(&quot;#SvgjsLinearGradient1608&quot;)" stroke-linecap="round" class="TopLeft"></path><path d="M332 36L354 58" stroke-width="8" stroke="url(&quot;#SvgjsLinearGradient1609&quot;)" stroke-linecap="round" class="BottomRight"></path><path d="M499 18L479 -2" stroke-width="6" stroke="url(&quot;#SvgjsLinearGradient1608&quot;)" stroke-linecap="round" class="TopLeft"></path><path d="M628 63L576 11" stroke-width="8" stroke="url(&quot;#SvgjsLinearGradient1606&quot;)" stroke-linecap="round" class="BottomRight"></path><path d="M437 36L465 64" stroke-width="10" stroke="url(&quot;#SvgjsLinearGradient1608&quot;)" stroke-linecap="round" class="TopLeft"></path><path d="M189 69L235 115" stroke-width="8" stroke="url(&quot;#SvgjsLinearGradient1608&quot;)" stroke-linecap="round" class="TopLeft"></path><path d="M1349 7L1304 -38" stroke-width="10" stroke="url(&quot;#SvgjsLinearGradient1606&quot;)" stroke-linecap="round" class="BottomRight"></path><path d="M692 8L732 48" stroke-width="10" stroke="url(&quot;#SvgjsLinearGradient1606&quot;)" stroke-linecap="round" class="BottomRight"></path><path d="M1175 9L1196 30" stroke-width="8" stroke="url(&quot;#SvgjsLinearGradient1608&quot;)" stroke-linecap="round" class="TopLeft"></path><path d="M375 1L348 -26" stroke-width="8" stroke="url(&quot;#SvgjsLinearGradient1610&quot;)" stroke-linecap="round" class="BottomRight"></path><path d="M729 54L761 86" stroke-width="8" stroke="url(&quot;#SvgjsLinearGradient1606&quot;)" stroke-linecap="round" class="BottomRight"></path><path d="M1174 43L1152 21" stroke-width="10" stroke="url(&quot;#SvgjsLinearGradient1605&quot;)" stroke-linecap="round" class="TopLeft"></path><path d="M71 55L116 100" stroke-width="10" stroke="url(&quot;#SvgjsLinearGradient1608&quot;)" stroke-linecap="round" class="TopLeft"></path><path d="M1029 17L987 -25" stroke-width="10" stroke="url(&quot;#SvgjsLinearGradient1607&quot;)" stroke-linecap="round" class="TopLeft"></path><path d="M377 41L330 -6" stroke-width="8" stroke="url(&quot;#SvgjsLinearGradient1606&quot;)" stroke-linecap="round" class="BottomRight"></path><path d="M1333 69L1371 107" stroke-width="6" stroke="url(&quot;#SvgjsLinearGradient1607&quot;)" stroke-linecap="round" class="TopLeft"></path><path d="M1237 4L1209 -24" stroke-width="10" stroke="url(&quot;#SvgjsLinearGradient1606&quot;)" stroke-linecap="round" class="BottomRight"></path><path d="M1186 61L1130 5" stroke-width="6" stroke="url(&quot;#SvgjsLinearGradient1607&quot;)" stroke-linecap="round" class="TopLeft"></path><path d="M922 27L892 -3" stroke-width="8" stroke="url(&quot;#SvgjsLinearGradient1610&quot;)" stroke-linecap="round" class="BottomRight"></path><path d="M20 14L46 40" stroke-width="10" stroke="url(&quot;#SvgjsLinearGradient1607&quot;)" stroke-linecap="round" class="TopLeft"></path><path d="M1202 75L1167 40" stroke-width="6" stroke="url(&quot;#SvgjsLinearGradient1605&quot;)" stroke-linecap="round" class="TopLeft"></path><path d="M1011 3L1041 33" stroke-width="6" stroke="url(&quot;#SvgjsLinearGradient1605&quot;)" stroke-linecap="round" class="TopLeft"></path><path d="M891 32L943 84" stroke-width="8" stroke="url(&quot;#SvgjsLinearGradient1607&quot;)" stroke-linecap="round" class="TopLeft"></path><path d="M1286 2L1324 40" stroke-width="10" stroke="url(&quot;#SvgjsLinearGradient1607&quot;)" stroke-linecap="round" class="TopLeft"></path><path d="M978 21L1019 62" stroke-width="10" stroke="url(&quot;#SvgjsLinearGradient1607&quot;)" stroke-linecap="round" class="TopLeft"></path><path d="M1385 12L1423 50" stroke-width="6" stroke="url(&quot;#SvgjsLinearGradient1605&quot;)" stroke-linecap="round" class="TopLeft"></path><path d="M498 42L473 17" stroke-width="10" stroke="url(&quot;#SvgjsLinearGradient1609&quot;)" stroke-linecap="round" class="BottomRight"></path><path d="M749 59L789 99" stroke-width="8" stroke="url(&quot;#SvgjsLinearGradient1606&quot;)" stroke-linecap="round" class="BottomRight"></path><path d="M1047 29L1086 68" stroke-width="6" stroke="url(&quot;#SvgjsLinearGradient1606&quot;)" stroke-linecap="round" class="BottomRight"></path><path d="M216 18L263 65" stroke-width="6" stroke="url(&quot;#SvgjsLinearGradient1607&quot;)" stroke-linecap="round" class="TopLeft"></path><path d="M1295 7L1330 42" stroke-width="6" stroke="url(&quot;#SvgjsLinearGradient1609&quot;)" stroke-linecap="round" class="BottomRight"></path><path d="M265 53L288 76" stroke-width="10" stroke="url(&quot;#SvgjsLinearGradient1606&quot;)" stroke-linecap="round" class="BottomRight"></path><path d="M928 17L893 -18" stroke-width="8" stroke="url(&quot;#SvgjsLinearGradient1608&quot;)" stroke-linecap="round" class="TopLeft"></path></g><defs><mask id="SvgjsMask1604"><rect width="1440" height="76" fill="#ffffff"></rect></mask><linearGradient x1="100%" y1="100%" x2="0%" y2="0%" id="SvgjsLinearGradient1605"><stop stop-color="rgba(40, 147, 255, 0)" offset="0"></stop><stop stop-color="rgba(40, 147, 255, 1)" offset="1"></stop></linearGradient><linearGradient x1="0%" y1="0%" x2="100%" y2="100%" id="SvgjsLinearGradient1606"><stop stop-color="rgba(0, 255, 0, 0)" offset="0"></stop><stop stop-color="rgba(0, 255, 0, 1)" offset="1"></stop></linearGradient><linearGradient x1="100%" y1="100%" x2="0%" y2="0%" id="SvgjsLinearGradient1607"><stop stop-color="rgba(0, 255, 0, 0)" offset="0"></stop><stop stop-color="rgba(0, 255, 0, 1)" offset="1"></stop></linearGradient><linearGradient x1="100%" y1="100%" x2="0%" y2="0%" id="SvgjsLinearGradient1608"><stop stop-color="rgba(255, 24, 78, 0)" offset="0"></stop><stop stop-color="rgba(255, 24, 78, 1)" offset="1"></stop></linearGradient><linearGradient x1="0%" y1="0%" x2="100%" y2="100%" id="SvgjsLinearGradient1609"><stop stop-color="rgba(40, 147, 255, 0)" offset="0"></stop><stop stop-color="rgba(40, 147, 255, 1)" offset="1"></stop></linearGradient><linearGradient x1="0%" y1="0%" x2="100%" y2="100%" id="SvgjsLinearGradient1610"><stop stop-color="rgba(255, 24, 78, 0)" offset="0"></stop><stop stop-color="rgba(255, 24, 78, 1)" offset="1"></stop></linearGradient></defs></svg>